<?xml version="1.0" encoding="UTF-8"?>
<!-- SPDX-License-Identifier: AGPL-3.0-or-later OR EUPL-1.2 -->
<!-- Copyright 2026 Saimonokuma. GENERATED by checker/glossary.mjs. -->
<svg xmlns="http://www.w3.org/2000/svg" width="820" height="700" viewBox="0 0 820 700" font-family="-apple-system,BlinkMacSystemFont,Segoe UI,Roboto,Helvetica,Arial,sans-serif">
<rect width="820" height="700" fill="#0f1117"/>
<text x="28" y="42" font-size="23" font-weight="600" fill="#e6e9ef">The Suite, by family</text>
<text x="28" y="70" font-size="15" fill="#9aa3b2">170 entries. Every count measured from the resolved tree.</text>
<text x="256" y="99" font-size="15" fill="#e6e9ef" text-anchor="end">Thinking models</text>
<rect x="270" y="87" width="235" height="18" rx="4" fill="#27ae60"/>
<text x="515" y="101" font-size="14" fill="#9aa3b2">12</text>
<text x="256" y="129" font-size="15" fill="#e6e9ef" text-anchor="end">Research</text>
<rect x="270" y="117" width="215" height="18" rx="4" fill="#2980b9"/>
<text x="495" y="131" font-size="14" fill="#9aa3b2">11</text>
<text x="256" y="159" font-size="15" fill="#e6e9ef" text-anchor="end">Asking and deciding</text>
<rect x="270" y="147" width="176" height="18" rx="4" fill="#8e44ad"/>
<text x="456" y="161" font-size="14" fill="#9aa3b2">9</text>
<text x="256" y="189" font-size="15" fill="#e6e9ef" text-anchor="end">The Phantom Books shelf</text>
<rect x="270" y="177" width="391" height="18" rx="4" fill="#d35400"/>
<text x="671" y="191" font-size="14" fill="#9aa3b2">20</text>
<text x="256" y="219" font-size="15" fill="#e6e9ef" text-anchor="end">The RoT MoE lenses</text>
<rect x="270" y="207" width="195" height="18" rx="4" fill="#16a085"/>
<text x="475" y="221" font-size="14" fill="#9aa3b2">10</text>
<text x="256" y="249" font-size="15" fill="#e6e9ef" text-anchor="end">Creators</text>
<rect x="270" y="237" width="254" height="18" rx="4" fill="#c0392b"/>
<text x="534" y="251" font-size="14" fill="#9aa3b2">13</text>
<text x="256" y="279" font-size="15" fill="#e6e9ef" text-anchor="end">Prompt creators, one per schematic</text>
<rect x="270" y="267" width="332" height="18" rx="4" fill="#7f8c8d"/>
<text x="612" y="281" font-size="14" fill="#9aa3b2">17</text>
<text x="256" y="309" font-size="15" fill="#e6e9ef" text-anchor="end">File types and dorks</text>
<rect x="270" y="297" width="215" height="18" rx="4" fill="#f39c12"/>
<text x="495" y="311" font-size="14" fill="#9aa3b2">11</text>
<text x="256" y="339" font-size="15" fill="#e6e9ef" text-anchor="end">Tasks</text>
<rect x="270" y="327" width="98" height="18" rx="4" fill="#2c3e50"/>
<text x="378" y="341" font-size="14" fill="#9aa3b2">5</text>
<text x="256" y="369" font-size="15" fill="#e6e9ef" text-anchor="end">Repository</text>
<rect x="270" y="357" width="78" height="18" rx="4" fill="#9b59b6"/>
<text x="358" y="371" font-size="14" fill="#9aa3b2">4</text>
<text x="256" y="399" font-size="15" fill="#e6e9ef" text-anchor="end">Audits, in the foreground</text>
<rect x="270" y="387" width="78" height="18" rx="4" fill="#1abc9c"/>
<text x="358" y="401" font-size="14" fill="#9aa3b2">4</text>
<text x="256" y="429" font-size="15" fill="#e6e9ef" text-anchor="end">Codebase growth</text>
<rect x="270" y="417" width="59" height="18" rx="4" fill="#16a34a"/>
<text x="339" y="431" font-size="14" fill="#9aa3b2">3</text>
<text x="256" y="459" font-size="15" fill="#e6e9ef" text-anchor="end">The Graphic and Geometric Suite</text>
<rect x="270" y="447" width="98" height="18" rx="4" fill="#0e7490"/>
<text x="378" y="461" font-size="14" fill="#9aa3b2">5</text>
<text x="256" y="489" font-size="15" fill="#e6e9ef" text-anchor="end">Inter-operation</text>
<rect x="270" y="477" width="20" height="18" rx="4" fill="#6b21a8"/>
<text x="300" y="491" font-size="14" fill="#9aa3b2">1</text>
<text x="256" y="519" font-size="15" fill="#e6e9ef" text-anchor="end">The sigil</text>
<rect x="270" y="507" width="39" height="18" rx="4" fill="#0f766e"/>
<text x="319" y="521" font-size="14" fill="#9aa3b2">2</text>
<text x="256" y="549" font-size="15" fill="#e6e9ef" text-anchor="end">The lists</text>
<rect x="270" y="537" width="156" height="18" rx="4" fill="#c0392b"/>
<text x="436" y="551" font-size="14" fill="#9aa3b2">8</text>
<text x="256" y="579" font-size="15" fill="#e6e9ef" text-anchor="end">Workflow and the Adiutor</text>
<rect x="270" y="567" width="156" height="18" rx="4" fill="#e67e22"/>
<text x="436" y="581" font-size="14" fill="#9aa3b2">8</text>
<text x="256" y="609" font-size="15" fill="#e6e9ef" text-anchor="end">Skills</text>
<rect x="270" y="597" width="430" height="18" rx="4" fill="#4b5563"/>
<text x="710" y="611" font-size="14" fill="#9aa3b2">22</text>
<text x="256" y="639" font-size="15" fill="#e6e9ef" text-anchor="end">Agents</text>
<rect x="270" y="627" width="98" height="18" rx="4" fill="#4b5563"/>
<text x="378" y="641" font-size="14" fill="#9aa3b2">5</text>
<line x1="24" y1="670" x2="796" y2="670" stroke="#242938" stroke-width="1"/>
<text x="24" y="690" font-size="11" fill="#9aa3b2">Drawn as SVG because GitHub sanitises style and script out of a README, but renders a committed image untouched.</text>
</svg>
